<svg width="16" height="16" viewBox="0 0 16 16" fill="none" xmlns="http://www.w3.org/2000/svg">
<g clip-path="url(#clip0_33_384)">
<path d="M1.55556 16C1.12778 16 0.761446 15.8432 0.456557 15.5296C0.151668 15.216 -0.000517198 14.8395 1.32051e-06 14.4V3.6C1.32051e-06 3.16 0.152446 2.7832 0.457335 2.4696C0.762223 2.156 1.1283 1.99947 1.55556 2H3V1.00001C3 0.447726 3.44771 1.16117e-05 3.99999 7.48044e-06C4.55228 3.34912e-06 5 0.44772 5 1.00001V2H11V1.00001C11 0.447723 11.4477 7.57339e-06 12 7.06315e-06C12.5523 6.55291e-06 13 0.447722 13 1.00001V2H14.4444C14.8722 2 15.2386 2.1568 15.5434 2.4704C15.8483 2.784 16.0005 3.16053 16 3.6V14.4C16 14.84 15.8476 15.2168 15.5427 15.5304C15.2378 15.844 14.8717 16.0005 14.4444 16H1.55556ZM2 14H14V8H2V14ZM2 6H14V4.00001H2V6Z" fill="white"/>
</g>
<defs>
<clipPath id="clip0_33_384">
<rect width="16" height="16" fill="white"/>
</clipPath>
</defs>
</svg>
