<svg width="37" height="38" viewBox="0 0 37 38" fill="none" xmlns="http://www.w3.org/2000/svg">
<path d="M18.2787 0.5C8.20587 0.5 0 8.71149 0 18.8885C0 29.0655 8.20587 37.277 18.2787 37.277C28.3949 37.277 36.5574 29.0218 36.5574 18.8885C36.6008 8.71149 28.3949 0.5 18.2787 0.5ZM29.2199 19.369C28.9159 25.2218 24.14 29.8517 18.2353 29.8517C12.1569 29.8517 7.25069 24.9161 7.25069 18.8011C7.25069 16.3988 7.98879 14.1713 9.29131 12.3805C9.85573 11.5942 10.6372 11.5069 10.8543 11.5506C10.8543 11.5506 10.9412 11.7253 11.0714 12.031C11.2017 12.3368 11.3753 12.5115 11.5924 12.5115C11.8963 12.5115 12.1569 12.2057 12.4174 11.5942C12.7213 10.808 13.112 10.2839 13.4594 9.97816C13.8501 9.67241 14.1975 9.45402 14.5882 9.32299C14.7185 9.27931 14.8487 9.27931 14.979 9.23563C15.1526 9.19195 15.2829 9.1046 15.2829 9.01724C15.2829 8.79885 15.1961 8.62414 14.979 8.44942C15.8907 8.05632 17.063 7.83793 18.4524 7.83793C19.7115 7.83793 20.4061 8.01264 20.4061 8.01264C21.3613 8.27471 22.056 8.71149 22.0126 9.01724C21.9692 9.32299 21.535 9.4977 21.0574 9.41034C20.5798 9.32299 19.7549 9.71609 19.2339 10.1965C18.7129 10.677 18.3655 11.2885 18.4524 11.5069C18.5392 11.7253 18.7563 11.9874 18.8431 11.9874C18.9734 12.031 19.1036 12.1621 19.1905 12.2931C19.2773 12.4241 19.451 12.4678 19.5378 12.3805C19.6681 12.2931 19.7549 12.0747 19.7115 11.8126C19.7115 11.5942 19.9286 11.2011 20.2325 10.9828C20.5364 10.7644 20.7535 10.8954 20.7535 11.2885C20.7535 11.6816 20.5798 12.2057 20.3627 12.4241C20.1891 12.6862 19.6681 13.0356 19.2339 13.2103C18.7997 13.3851 17.4538 13.1667 17.1064 13.6471C16.8893 13.9529 17.584 14.2586 17.1498 14.477C16.8893 14.608 16.5854 14.477 16.4552 14.7391C16.3249 15.0011 16.2381 15.4816 16.4552 15.6563C16.7157 15.9184 17.4972 15.569 17.5406 15.2632C17.584 14.9138 17.8879 14.9138 18.105 14.9575C18.3221 15.0011 18.626 14.9138 18.7563 14.7828C18.8865 14.6517 19.1905 14.6517 19.3641 14.7828C19.5378 14.9138 19.7983 15.2195 19.8417 15.4816C19.9286 15.7 19.972 15.8747 19.6681 16.0494C19.5378 16.1368 19.5812 16.2678 19.7115 16.3115C19.8417 16.3988 20.2325 16.3552 20.3627 16.2678C20.493 16.1805 20.5798 15.9184 20.6232 15.7874C20.6667 15.6563 20.8837 15.7437 21.014 15.7C21.1442 15.6126 21.0574 15.569 20.8837 15.3069C20.6666 15.0448 20.2759 14.9575 20.2325 14.477C20.1891 14.3023 20.6232 14.2586 21.0574 14.2586C21.4482 14.2586 21.8823 14.6954 21.9692 15.2195C22.056 15.7437 22.2731 16.1368 22.4468 16.1368C22.6204 16.1368 22.6204 17.0103 22.3165 17.0977C22.0126 17.1851 21.3179 17.2287 20.7535 17.054C19.7549 16.792 18.5826 16.5299 18.2353 16.4862C17.8445 16.4425 17.5406 16.1368 17.2367 16.0931C16.6288 16.0057 15.8907 16.6609 15.8907 16.6609C15.1092 16.923 14.5882 17.4908 14.458 17.9713C14.3711 18.4517 14.4146 19.1506 14.5448 19.5C14.6751 19.8494 15.2829 20.2425 15.8473 20.3736C16.4118 20.5046 17.2801 21.2034 17.8011 21.946C18.1919 23.5184 18.3655 24.8287 18.3655 24.8287C18.4958 25.8333 18.7997 26.7942 19.1036 26.969C19.4075 27.1874 20.7101 26.8816 21.1442 26.008C21.6218 25.1345 21.4482 22.7759 21.5784 22.2954C21.7087 21.8586 23.0112 20.854 23.098 20.4172C23.1849 20.0241 23.0112 19.4563 23.0112 19.4563C22.6204 18.5391 22.3599 17.7529 22.4468 17.7092C22.5336 17.6655 22.7941 18.0586 23.0112 18.6264C23.2283 19.1506 23.7927 19.5 24.1835 19.3253C24.6176 19.1506 24.661 18.5391 24.3571 17.8839C25.3557 17.7965 26.3543 17.7965 27.2227 17.8839C28.091 17.9713 28.8291 18.3207 29.0028 18.4954C29.2199 19.0632 29.2199 19.369 29.2199 19.369Z" fill="white"/>
</svg>
