<svg width="155" height="38" viewBox="0 0 155 38" fill="none" xmlns="http://www.w3.org/2000/svg">
<path d="M19.2787 0.5C9.20587 0.5 1 8.71149 1 18.8885C1 29.0655 9.20587 37.277 19.2787 37.277C29.3949 37.277 37.5574 29.0218 37.5574 18.8885C37.6008 8.71149 29.3949 0.5 19.2787 0.5ZM30.2199 19.369C29.9159 25.2218 25.14 29.8517 19.2353 29.8517C13.1569 29.8517 8.25069 24.9161 8.25069 18.8011C8.25069 16.3988 8.98879 14.1713 10.2913 12.3805C10.8557 11.5942 11.6372 11.5069 11.8543 11.5506C11.8543 11.5506 11.9412 11.7253 12.0714 12.031C12.2017 12.3368 12.3753 12.5115 12.5924 12.5115C12.8963 12.5115 13.1569 12.2057 13.4174 11.5942C13.7213 10.808 14.112 10.2839 14.4594 9.97816C14.8501 9.67241 15.1975 9.45402 15.5882 9.32299C15.7185 9.27931 15.8487 9.27931 15.979 9.23563C16.1526 9.19195 16.2829 9.1046 16.2829 9.01724C16.2829 8.79885 16.1961 8.62414 15.979 8.44942C16.8907 8.05632 18.063 7.83793 19.4524 7.83793C20.7115 7.83793 21.4061 8.01264 21.4061 8.01264C22.3613 8.27471 23.056 8.71149 23.0126 9.01724C22.9692 9.32299 22.535 9.4977 22.0574 9.41034C21.5798 9.32299 20.7549 9.71609 20.2339 10.1965C19.7129 10.677 19.3655 11.2885 19.4524 11.5069C19.5392 11.7253 19.7563 11.9874 19.8431 11.9874C19.9734 12.031 20.1036 12.1621 20.1905 12.2931C20.2773 12.4241 20.451 12.4678 20.5378 12.3805C20.6681 12.2931 20.7549 12.0747 20.7115 11.8126C20.7115 11.5942 20.9286 11.2011 21.2325 10.9828C21.5364 10.7644 21.7535 10.8954 21.7535 11.2885C21.7535 11.6816 21.5798 12.2057 21.3627 12.4241C21.1891 12.6862 20.6681 13.0356 20.2339 13.2103C19.7997 13.3851 18.4538 13.1667 18.1064 13.6471C17.8893 13.9529 18.584 14.2586 18.1498 14.477C17.8893 14.608 17.5854 14.477 17.4552 14.7391C17.3249 15.0011 17.2381 15.4816 17.4552 15.6563C17.7157 15.9184 18.4972 15.569 18.5406 15.2632C18.584 14.9138 18.8879 14.9138 19.105 14.9575C19.3221 15.0011 19.626 14.9138 19.7563 14.7828C19.8865 14.6517 20.1905 14.6517 20.3641 14.7828C20.5378 14.9138 20.7983 15.2195 20.8417 15.4816C20.9286 15.7 20.972 15.8747 20.6681 16.0494C20.5378 16.1368 20.5812 16.2678 20.7115 16.3115C20.8417 16.3988 21.2325 16.3552 21.3627 16.2678C21.493 16.1805 21.5798 15.9184 21.6232 15.7874C21.6667 15.6563 21.8837 15.7437 22.014 15.7C22.1442 15.6126 22.0574 15.569 21.8837 15.3069C21.6666 15.0448 21.2759 14.9575 21.2325 14.477C21.1891 14.3023 21.6232 14.2586 22.0574 14.2586C22.4482 14.2586 22.8823 14.6954 22.9692 15.2195C23.056 15.7437 23.2731 16.1368 23.4468 16.1368C23.6204 16.1368 23.6204 17.0103 23.3165 17.0977C23.0126 17.1851 22.3179 17.2287 21.7535 17.054C20.7549 16.792 19.5826 16.5299 19.2353 16.4862C18.8445 16.4425 18.5406 16.1368 18.2367 16.0931C17.6288 16.0057 16.8907 16.6609 16.8907 16.6609C16.1092 16.923 15.5882 17.4908 15.458 17.9713C15.3711 18.4517 15.4146 19.1506 15.5448 19.5C15.6751 19.8494 16.2829 20.2425 16.8473 20.3736C17.4118 20.5046 18.2801 21.2034 18.8011 21.946C19.1919 23.5184 19.3655 24.8287 19.3655 24.8287C19.4958 25.8333 19.7997 26.7942 20.1036 26.969C20.4075 27.1874 21.7101 26.8816 22.1442 26.008C22.6218 25.1345 22.4482 22.7759 22.5784 22.2954C22.7087 21.8586 24.0112 20.854 24.098 20.4172C24.1849 20.0241 24.0112 19.4563 24.0112 19.4563C23.6204 18.5391 23.3599 17.7529 23.4468 17.7092C23.5336 17.6655 23.7941 18.0586 24.0112 18.6264C24.2283 19.1506 24.7927 19.5 25.1835 19.3253C25.6176 19.1506 25.661 18.5391 25.3571 17.8839C26.3557 17.7965 27.3543 17.7965 28.2227 17.8839C29.091 17.9713 29.8291 18.3207 30.0028 18.4954C30.2199 19.0632 30.2199 19.369 30.2199 19.369Z" fill="white"/>
<path d="M44.895 14.7391C44.895 13.4287 44.9818 12.1621 46.1975 11.0264C46.9356 10.3276 47.9342 9.89081 49.2367 9.89081C50.5392 9.89081 51.5378 10.3276 52.2759 11.0264C53.4482 12.1621 53.5784 13.4287 53.5784 14.7391V22.9943C53.5784 24.3046 53.4916 25.5713 52.2759 26.7069C51.5378 27.4058 50.5392 27.8425 49.2367 27.8425C47.9342 27.8425 46.9356 27.4058 46.1975 26.7069C45.0252 25.5713 44.895 24.3046 44.895 22.9943V14.7391ZM51.1036 14.3897C51.1036 13.8655 51.0602 13.3414 50.5826 12.8609C50.3221 12.5989 49.8445 12.3805 49.2367 12.3805C48.6289 12.3805 48.1947 12.5989 47.8908 12.8609C47.4132 13.3414 47.3697 13.8655 47.3697 14.3897V23.3874C47.3697 23.9115 47.4132 24.4356 47.8908 24.9161C48.1513 25.1782 48.6289 25.3966 49.2367 25.3966C49.8445 25.3966 50.2787 25.1782 50.5826 24.9161C51.0602 24.4356 51.1036 23.9115 51.1036 23.3874V14.3897Z" fill="white"/>
<path d="M59.7436 10.1529C60.4817 10.1529 61.9145 10.2402 62.9999 10.9828C64.563 12.1184 64.563 13.9529 64.563 15.0011C64.563 16.1368 64.4761 16.923 63.8249 17.7092C63.5209 18.1023 63.1302 18.3644 62.8697 18.4954C63.5209 18.8011 63.8249 19.2379 64.042 19.5874C64.5195 20.4609 64.5195 20.9414 64.5195 21.7713V23.0816C64.5195 23.8241 64.5195 25.6149 63.0434 26.7069C62.4789 27.1437 61.5672 27.5368 60.091 27.5368H56.3137V10.1529H59.7436ZM58.8753 17.4034H60.0475C60.8725 17.4034 61.3935 17.054 61.6106 16.7483C61.9145 16.3989 62.0882 15.7874 62.0882 15.2632V14.2149C62.0882 13.7782 61.8711 13.3414 61.6106 13.0356C61.3067 12.7299 60.8291 12.4678 60.0041 12.4678H58.8319V17.4034H58.8753ZM58.8753 25.3529H60.0041C60.3949 25.3529 61.1764 25.3092 61.6974 24.5667C62.1316 23.9988 62.1316 23.0816 62.1316 22.8195V21.9897C62.1316 21.1598 62.0013 20.5483 61.4803 20.0678C61.0896 19.7621 60.6988 19.631 60.1778 19.631H58.9187V25.3529H58.8753Z" fill="white"/>
<path d="M67.2114 14.7391C67.2114 13.4287 67.2983 12.1621 68.5139 11.0264C69.252 10.3276 70.2506 9.89081 71.5532 9.89081C72.8557 9.89081 73.8543 10.3276 74.5924 11.0264C75.7647 12.1621 75.8949 13.4287 75.8949 14.7391V22.9943C75.8949 24.3046 75.8081 25.5713 74.5924 26.7069C73.8543 27.4058 72.8557 27.8425 71.5532 27.8425C70.2506 27.8425 69.252 27.4058 68.5139 26.7069C67.3417 25.5713 67.2114 24.3046 67.2114 22.9943V14.7391ZM73.4201 14.3897C73.4201 13.8655 73.3767 13.3414 72.8991 12.8609C72.6386 12.5989 72.161 12.3805 71.5532 12.3805C70.9453 12.3805 70.5112 12.5989 70.2072 12.8609C69.7296 13.3414 69.6862 13.8655 69.6862 14.3897V23.3874C69.6862 23.9115 69.7296 24.4356 70.2072 24.9161C70.4677 25.1782 70.9453 25.3966 71.5532 25.3966C72.161 25.3966 72.5952 25.1782 72.8991 24.9161C73.3767 24.4356 73.4201 23.9115 73.4201 23.3874V14.3897Z" fill="white"/>
<path d="M86.1849 10.1529V12.0747L80.9748 25.3529H86.0546V27.5805H78.3698V25.3966L83.4496 12.4241H78.7171V10.1966H86.1849V10.1529Z" fill="white"/>
<path d="M92.0028 10.1529C93.2619 10.1529 95.0855 10.0655 96.2577 11.5069C96.8222 12.2058 97.1695 13.254 97.1695 14.5207V15.831C97.1695 16.9667 96.7787 18.015 96.2577 18.5828C95.867 19.0196 95.3894 19.3253 94.9552 19.4563L97.6905 27.4931H95.1289L92.7409 19.9805H91.2647V27.4931H88.7465V10.1529H92.0028ZM91.2213 17.8402H92.6107C93.1751 17.8402 93.6527 17.7092 94.1303 17.2724C94.6079 16.792 94.6513 16.3552 94.6513 15.7V14.4333C94.6513 13.7782 94.3908 13.1667 94.0869 12.8609C93.6093 12.3805 93.0014 12.4241 92.4804 12.4241H91.1779V17.8402H91.2213Z" fill="white"/>
<path d="M99.7744 10.1529H107.112V12.5115H102.249V17.6218H106.548V19.8494H102.249V25.1782H107.199V27.5368H99.7744V10.1529Z" fill="white"/>
<path d="M114.146 27.5805H111.975L108.284 10.1529H111.02L113.017 22.2081H113.104L115.188 10.1529H117.793L114.146 27.5805Z" fill="white"/>
<path d="M124.392 27.5805L123.567 23.8678H120.398L119.573 27.5805H117.098L120.875 10.1529H123.046L126.824 27.5805H124.392ZM121.917 15.0012L120.615 21.5966H123.22L121.917 15.0012Z" fill="white"/>
<path d="M134.856 10.1529V12.5115H131.773V27.5805H129.298V12.5115H126.216V10.1529H134.856Z" fill="white"/>
<path d="M136.853 10.1529H144.191V12.5115H139.328V17.6218H143.626V19.8494H139.328V25.1782H144.277V27.5368H136.853V10.1529Z" fill="white"/>
<path d="M149.097 10.1529V25.2218H154.307V27.5805H146.578V10.1529H149.097Z" fill="white"/>
</svg>
