<svg width="770" height="228" viewBox="0 0 770 228" fill="none" xmlns="http://www.w3.org/2000/svg">
<path fill-rule="evenodd" clip-rule="evenodd" d="M515.035 119.765L500.995 45.7175C500.82 44.7928 501.322 43.8677 502.187 43.4964C539.945 27.2857 562.974 10.0126 656.383 35.6192C700.449 47.699 730.551 35.9997 739.183 31.8712C740.442 31.2692 741.994 32.0152 742.243 33.3881L756.266 110.515C717.507 131.056 684.809 140.637 591.704 115.114C568.21 108.673 538.294 110.458 515.035 119.765Z" fill="url(#paint0_linear_1793_1762)"/>
<path fill-rule="evenodd" clip-rule="evenodd" d="M531.861 193.361C530.682 193.8 529.377 193.086 529.143 191.849L515.255 118.603C553.914 102.216 576.31 84.1473 670.944 110.089C723.576 124.518 756.267 106.881 756.267 106.881L769.146 184.724C769.287 185.572 768.863 186.419 768.102 186.819C729.925 206.867 698.343 214.825 606.265 189.584C583.527 183.351 554.774 184.822 531.861 193.361Z" fill="url(#paint1_linear_1793_1762)"/>
<path d="M115.672 3C55.2352 3 6 52.2689 6 113.331C6 174.393 55.2352 223.662 115.672 223.662C176.37 223.662 225.344 174.131 225.344 113.331C225.605 52.2689 176.37 3 115.672 3ZM181.319 116.214C179.496 151.331 150.84 179.11 115.412 179.11C78.9411 179.11 49.5042 149.496 49.5042 112.807C49.5042 98.393 53.9327 85.0275 61.7478 74.2827C65.1344 69.5655 69.8235 69.0413 71.126 69.3034C71.126 69.3034 71.647 70.3517 72.4285 72.1862C73.21 74.0206 74.252 75.0689 75.5545 75.0689C77.3781 75.0689 78.9411 73.2344 80.5041 69.5655C82.3276 64.8482 84.6722 61.7034 86.7562 59.8689C89.1007 58.0344 91.1848 56.7241 93.5293 55.9379C94.3108 55.6758 95.0923 55.6758 95.8738 55.4138C96.9159 55.1517 97.6974 54.6275 97.6974 54.1034C97.6974 52.7931 97.1764 51.7448 95.8738 50.6965C101.344 48.3379 108.378 47.0276 116.714 47.0276C124.269 47.0276 128.437 48.0758 128.437 48.0758C134.168 49.6482 138.336 52.2689 138.075 54.1034C137.815 55.9379 135.21 56.9862 132.344 56.462C129.479 55.9379 124.529 58.2965 121.403 61.1793C118.277 64.062 116.193 67.731 116.714 69.0413C117.235 70.3517 118.538 71.9241 119.059 71.9241C119.84 72.1862 120.622 72.9724 121.143 73.7586C121.664 74.5448 122.706 74.8068 123.227 74.2827C124.008 73.7586 124.529 72.4482 124.269 70.8758C124.269 69.5655 125.571 67.2068 127.395 65.8965C129.218 64.5862 130.521 65.3724 130.521 67.731C130.521 70.0896 129.479 73.2344 128.176 74.5448C127.134 76.1172 124.008 78.2137 121.403 79.262C118.798 80.3103 110.723 78.9999 108.639 81.8827C107.336 83.7172 111.504 85.5517 108.899 86.862C107.336 87.6482 105.512 86.862 104.731 88.4344C103.949 90.0068 103.428 92.8896 104.731 93.9379C106.294 95.5103 110.983 93.4137 111.244 91.5793C111.504 89.4827 113.328 89.4827 114.63 89.7448C115.933 90.0068 117.756 89.4827 118.538 88.6965C119.319 87.9103 121.143 87.9103 122.185 88.6965C123.227 89.4827 124.79 91.3172 125.05 92.8896C125.571 94.1999 125.832 95.2482 124.008 96.2965C123.227 96.8206 123.487 97.6068 124.269 97.8689C125.05 98.393 127.395 98.131 128.176 97.6068C128.958 97.0827 129.479 95.5103 129.739 94.7241C130 93.9379 131.302 94.462 132.084 94.1999C132.865 93.6758 132.344 93.4137 131.302 91.8413C130 90.2689 127.655 89.7448 127.395 86.862C127.134 85.8137 129.739 85.5517 132.344 85.5517C134.689 85.5517 137.294 88.1724 137.815 91.3172C138.336 94.462 139.638 96.8206 140.68 96.8206C141.723 96.8206 141.723 102.062 139.899 102.586C138.075 103.11 133.907 103.372 130.521 102.324C124.529 100.752 117.496 99.1792 115.412 98.9172C113.067 98.6551 111.244 96.8206 109.42 96.5586C105.773 96.0344 101.344 99.9654 101.344 99.9654C96.6553 101.538 93.5293 104.945 92.7478 107.828C92.2268 110.71 92.4873 114.903 93.2688 117C94.0503 119.096 97.6974 121.455 101.084 122.241C104.47 123.027 109.681 127.221 112.807 131.676C115.151 141.11 116.193 148.972 116.193 148.972C116.975 155 118.798 160.765 120.622 161.814C122.445 163.124 130.26 161.29 132.865 156.048C135.731 150.807 134.689 136.655 135.47 133.772C136.252 131.152 144.067 125.124 144.588 122.503C145.109 120.145 144.067 116.738 144.067 116.738C141.723 111.234 140.16 106.517 140.68 106.255C141.202 105.993 142.765 108.352 144.067 111.759C145.37 114.903 148.756 117 151.101 115.952C153.706 114.903 153.966 111.234 152.143 107.303C158.134 106.779 164.126 106.779 169.336 107.303C174.546 107.828 178.975 109.924 180.017 110.972C181.319 114.379 181.319 116.214 181.319 116.214Z" fill="white"/>
<path d="M269.369 88.4345C269.369 80.5724 269.89 72.9724 277.184 66.1586C281.613 61.9655 287.604 59.3448 295.42 59.3448C303.235 59.3448 309.226 61.9655 313.655 66.1586C320.688 72.9724 321.47 80.5724 321.47 88.4345V137.966C321.47 145.828 320.949 153.428 313.655 160.241C309.226 164.435 303.235 167.055 295.42 167.055C287.604 167.055 281.613 164.435 277.184 160.241C270.151 153.428 269.369 145.828 269.369 137.966V88.4345ZM306.621 86.338C306.621 83.1931 306.361 80.0483 303.495 77.1655C301.932 75.5931 299.067 74.2828 295.42 74.2828C291.773 74.2828 289.167 75.5931 287.344 77.1655C284.478 80.0483 284.218 83.1931 284.218 86.338V140.324C284.218 143.469 284.478 146.614 287.344 149.497C288.907 151.069 291.773 152.379 295.42 152.379C299.067 152.379 301.672 151.069 303.495 149.497C306.361 146.614 306.621 143.469 306.621 140.324V86.338Z" fill="white"/>
<path d="M358.463 60.9172C362.891 60.9172 371.488 61.4414 378 65.8965C387.379 72.7103 387.379 83.7172 387.379 90.0069C387.379 96.8207 386.858 101.538 382.95 106.255C381.126 108.614 378.782 110.186 377.219 110.972C381.126 112.807 382.95 115.428 384.253 117.524C387.118 122.765 387.118 125.648 387.118 130.628V138.49C387.118 142.945 387.118 153.69 378.261 160.241C374.874 162.862 369.404 165.221 360.547 165.221H337.883V60.9172H358.463ZM353.253 104.421H360.286C365.236 104.421 368.362 102.324 369.664 100.49C371.488 98.3931 372.53 94.7241 372.53 91.5793V85.2896C372.53 82.6689 371.227 80.0483 369.664 78.2138C367.841 76.3793 364.975 74.8069 360.026 74.8069H352.992V104.421H353.253ZM353.253 152.117H360.026C362.37 152.117 367.059 151.855 370.185 147.4C372.79 143.993 372.79 138.49 372.79 136.917V131.938C372.79 126.959 372.009 123.29 368.883 120.407C366.538 118.572 364.194 117.786 361.068 117.786H353.513V152.117H353.253Z" fill="white"/>
<path d="M403.268 88.4345C403.268 80.5724 403.789 72.9724 411.083 66.1586C415.511 61.9655 421.503 59.3448 429.318 59.3448C437.133 59.3448 443.125 61.9655 447.553 66.1586C454.587 72.9724 455.368 80.5724 455.368 88.4345V137.966C455.368 145.828 454.847 153.428 447.553 160.241C443.125 164.435 437.133 167.055 429.318 167.055C421.503 167.055 415.511 164.435 411.083 160.241C404.049 153.428 403.268 145.828 403.268 137.966V88.4345ZM440.52 86.338C440.52 83.1931 440.259 80.0483 437.394 77.1655C435.831 75.5931 432.965 74.2828 429.318 74.2828C425.671 74.2828 423.066 75.5931 421.242 77.1655C418.377 80.0483 418.116 83.1931 418.116 86.338V140.324C418.116 143.469 418.377 146.614 421.242 149.497C422.805 151.069 425.671 152.379 429.318 152.379C432.965 152.379 435.57 151.069 437.394 149.497C440.259 146.614 440.52 143.469 440.52 140.324V86.338Z" fill="white"/>
<path d="M517.109 60.9172V72.4483L485.849 152.117H516.328V165.483H470.219V152.379L500.698 74.5448H472.303V61.1793H517.109V60.9172Z" fill="white"/>
<path d="M544.454 165.315H526.375V147.28H544.454V165.315Z" fill="white"/>
<path d="M612.45 139.655C612.45 147.475 610.049 153.878 605.248 158.863C600.25 163.946 593.783 166.488 585.846 166.488C577.811 166.488 571.295 163.946 566.297 158.863C561.496 153.878 559.095 147.475 559.095 139.655V60.9172H575.557V140.535C575.557 144.152 576.537 146.938 578.497 148.893C580.457 150.75 582.906 151.679 585.846 151.679C588.786 151.679 591.186 150.75 593.048 148.893C595.008 146.938 595.988 144.152 595.988 140.535V60.9172H612.45V139.655Z" fill="white"/>
<path d="M688.25 165.315H671.053L666.79 144.641H642.538L638.423 165.315H621.078L646.801 60.9172H662.822L688.25 165.315ZM663.704 129.831L654.738 86.1369L645.772 129.831H663.704Z" fill="white"/>
<defs>
<linearGradient id="paint0_linear_1793_1762" x1="510.925" y1="101.428" x2="748.997" y2="61.447" gradientUnits="userSpaceOnUse">
<stop stop-color="#2B74D3"/>
<stop offset="0.239583" stop-color="#4A85D3"/>
<stop offset="0.463542" stop-color="#2B74D3"/>
<stop offset="0.75" stop-color="#4A85D3"/>
<stop offset="1" stop-color="#2B74D3"/>
</linearGradient>
<linearGradient id="paint1_linear_1793_1762" x1="527.282" y1="168.67" x2="761.719" y2="130.506" gradientUnits="userSpaceOnUse">
<stop stop-color="#FFB117"/>
<stop offset="0.218037" stop-color="#FDC453"/>
<stop offset="0.468388" stop-color="#FFB117"/>
<stop offset="0.741921" stop-color="#FDC453"/>
<stop offset="1" stop-color="#FFB117"/>
</linearGradient>
</defs>
</svg>
